# xmcd CD database file
#
# Track frame offsets:
#	150
#	7771
#	34467
#	48535
#	65657
#	81711
#	85917
#	91736
#	93264
#	103435
#	131733
#	152380
#	162352
#	185635
#	196855
#
# Disc length: 3095 seconds
#
# Revision: 0
# Processed by: cddbd v1.5PL3 Copyright (c) Steve Scherf et al.
# Submitted via: CDex 1.51
#
DISCID=c60c150f
DTITLE=Duke Ellington - Sacred Concert
DYEAR=1999
DGENRE=Blues
TTITLE0=Praise God
TTITLE1=Heaven
TTITLE2=To be contended
TTITLE3=Freedom
TTITLE4=Word you heard
TTITLE5=Freedom is a word
TTITLE6=Sweet, fat and that
TTITLE7=Freedom-Svoboda
TTITLE8=To be contended
TTITLE9=The Shepherd
TTITLE10=The Majesty of God
TTITLE11=Come Sunday
TTITLE12=Almighty God
TTITLE13=T.G.T.T
TTITLE14=Praise God and Dance-Finale
EXTD=YEAR: 1999
EXTT0=
EXTT1=
EXTT2=
EXTT3=
EXTT4=
EXTT5=
EXTT6=
EXTT7=
EXTT8=
EXTT9=
EXTT10=
EXTT11=
EXTT12=
EXTT13=
EXTT14=
PLAYORDER=
